HIERARCHY
ROOT root     
{
	OFFSET 0.0000 0.0000 0.0000
	CHANNELS 6 Xposition Yposition Zposition Zrotation Yrotation Xrotation
	JOINT pelvis   
	{
		OFFSET 0.0000 0.0000 0.0000
		CHANNELS 3 Zrotation Yrotation Xrotation
		JOINT thorax   
		{
			OFFSET 0.0000 23.0750 -5.0000
			CHANNELS 3 Zrotation Yrotation Xrotation
			JOINT rclavicle
			{
				OFFSET 0.0000 28.0009 0.0000
				CHANNELS 3 Zrotation Yrotation Xrotation
				JOINT rhumerus 
				{
					OFFSET -18.5725 5.5939 0.0000
					CHANNELS 3 Zrotation Yrotation Xrotation
					JOINT rradius  
					{
						OFFSET -24.8459 0.0000 0.0000
						CHANNELS 3 Zrotation Yrotation Xrotation
						JOINT rhand    
						{
							OFFSET -24.5477 0.0000 0.0000
							CHANNELS 3 Zrotation Yrotation Xrotation
							End Site
							{
								OFFSET -8.1826 0.0000 0.0000
							}
						}
					}
				}
			}
			JOINT lclavicle
			{
				OFFSET 0.0000 28.0009 0.0000
				CHANNELS 3 Zrotation Yrotation Xrotation
				JOINT lhumerus 
				{
					OFFSET 18.5725 5.5939 0.0000
					CHANNELS 3 Zrotation Yrotation Xrotation
					JOINT lradius  
					{
						OFFSET 24.8459 0.0000 0.0000
						CHANNELS 3 Zrotation Yrotation Xrotation
						JOINT lhand    
						{
							OFFSET 24.5477 0.0000 0.0000
							CHANNELS 3 Zrotation Yrotation Xrotation
							End Site
							{
								OFFSET 8.1826 0.0000 0.0000
							}
						}
					}
				}
			}
			JOINT head     
			{
				OFFSET 0.0000 35.2030 0.0000
				CHANNELS 3 Zrotation Yrotation Xrotation
				End Site
				{
					OFFSET 0.0000 11.7343 0.0000
				}
			}
		}
		JOINT rfemur   
		{
			OFFSET -8.2817 0.0000 0.0000
			CHANNELS 3 Zrotation Yrotation Xrotation
			JOINT rtibia   
			{
				OFFSET 0.0000 -43.3627 0.0000
				CHANNELS 3 Zrotation Yrotation Xrotation
				JOINT rfoot    
				{
					OFFSET 0.0000 -38.2947 0.0000
					CHANNELS 3 Zrotation Yrotation Xrotation
					JOINT rtoes    
					{
						OFFSET 0.0000 0.0000 16.6054
						CHANNELS 3 Zrotation Yrotation Xrotation
						End Site
						{
							OFFSET 0.0000 0.0000 5.5351
						}
					}
				}
			}
		}
		JOINT lfemur   
		{
			OFFSET 8.2817 0.0000 0.0000
			CHANNELS 3 Zrotation Yrotation Xrotation
			JOINT ltibia   
			{
				OFFSET 0.0000 -43.3627 0.0000
				CHANNELS 3 Zrotation Yrotation Xrotation
				JOINT lfoot    
				{
					OFFSET 0.0000 -38.2947 0.0000
					CHANNELS 3 Zrotation Yrotation Xrotation
					JOINT ltoes    
					{
						OFFSET 0.0000 0.0000 16.6054
						CHANNELS 3 Zrotation Yrotation Xrotation
						End Site
						{
							OFFSET 0.0000 0.0000 5.5351
						}
					}
				}
			}
		}
	}
}
MOTION
Frames: 21
Frame Time: .0333333
-26.428 79.592 -1.7442 -0.662401 83.5404 20.5345 0 -0 0 -1.66356 6.70833 19.8555 15.385 -3.84733 1.35084e-05 57.424 10.7503 18.05 180 75.9906 180 -4.82557 14.5579 -0.616703 -12.1157 14.7528 -6.38576e-06 -47.8416 42.2205 25.0094 180 -87.47 -180 1.0772 -0.592596 -0.00560003 3.91842 -8.15195 -4.78386 7.03014 -9.39807 -27.3247 -0 -0 48.4077 -3.99489e-07 -8.25972 -16.8636 2.41139 -5.5727e-06 -41.712 -2.07675 6.37361 -55.7256 -0 -0 66.0214 -7.80155e-05 17.7361 -11.9616 -3.79232 -1.0269e-05 -12.4321 
-25.139 80.124 -1.7412 -0.114193 83.6399 21.2614 0 -0 0 -1.96676 7.3744 19.4952 14.8843 -3.85966 1.05802e-05 57.177 10.4203 17.9566 180 75.4243 180 -4.61981 14.4412 -0.585609 -11.853 15.2512 4.71675e-05 -47.2097 42.7866 25.6136 180 -86.4947 -180 0.594797 -0.730508 -0.0038 3.5332 -8.4628 -4.63819 6.66042 -9.60431 -26.2454 -0 -0 47.2698 2.30662e-05 -7.96446 -14.8815 2.05777 -9.63142e-06 -44.9946 -2.69626 6.52581 -55.9371 -0 -0 62.6198 -3.53306e-05 18.0243 -11.1688 -3.60657 6.52484e-07 -12.4905 
-23.837 80.655 -1.7449 0.398334 83.7612 21.9618 0 -0 0 -2.24046 7.98933 19.1542 14.4056 -3.88581 1.1745e-06 56.9621 10.0306 17.8825 -180 74.9171 -180 -4.4365 14.3105 -0.55718 -11.6806 15.7255 -3.19995e-05 -46.5569 43.2523 26.1831 -180 -85.5377 180 0.216597 -0.879006 -0.00169997 3.14316 -8.76982 -4.55872 6.29394 -9.88546 -25.2227 -0 -0 46.1977 -5.27141e-06 -7.59914 -12.7741 1.68968 -2.25293e-05 -48.5642 -3.31893 6.66991 -56.0451 -0 -0 59.0875 6.98053e-05 18.1637 -10.1977 -3.32428 7.70216e-06 -12.772 
-22.522 81.176 -1.7523 0.801754 83.9028 22.5517 0 -0 0 -2.48488 8.56267 18.8412 13.938 -3.91177 -1.71433e-05 56.7961 9.57836 17.825 180 74.4714 180 -4.26843 14.1809 -0.531209 -11.5874 16.1906 -4.57604e-05 -45.8973 43.6038 26.7167 180 -84.5928 -180 -0.104099 -1.0429 0.000899985 2.75914 -9.06945 -4.55126 5.93703 -10.2259 -24.2489 -0 -0 45.1935 -8.47991e-06 -7.16349 -10.5432 1.3174 1.87357e-07 -52.4902 -3.93153 6.81363 -56.0558 -0 -0 55.4729 -2.44888e-05 18.1483 -9.06798 -2.95731 -1.34301e-06 -13.3442 
-21.192 81.68 -1.7649 1.1532 84.0452 23.0749 0 -0 0 -2.71137 9.09529 18.5708 13.4947 -3.94828 1.43123e-05 56.6657 9.11011 17.8015 180 74.0994 180 -4.1166 14.0395 -0.507113 -11.5944 16.6363 -8.83598e-05 -45.2291 43.8728 27.1869 -180 -83.6324 180 -0.392896 -1.24139 0.0042999 2.3892 -9.34987 -4.61414 5.57945 -10.6296 -23.3091 -0 -0 44.2629 -6.23996e-07 -6.63698 -8.22076 0.953188 -3.08595e-06 -56.5393 -4.53407 6.95599 -55.9669 -0 -0 51.8171 -4.56942e-05 17.9907 -7.82272 -2.53079 6.74268e-06 -14.1965 
-19.846 82.16 -1.7805 1.39783 84.1857 23.4667 0 -0 0 -2.92445 9.59418 18.347 13.0769 -3.98954 -1.4699e-06 56.5752 8.64017 17.8117 -180 73.8152 -180 -3.9711 13.8925 -0.484009 -11.6842 17.0697 -3.72394e-05 -44.5786 44.0566 27.5813 180 -82.6776 180 -0.683998 -1.47332 0.0088001 2.03958 -9.60177 -4.7394 5.2227 -11.0751 -22.3973 -0 -0 43.4094 -3.78797e-06 -6.02065 -5.82629 0.613401 -5.59127e-06 -60.5894 -5.11729 7.10354 -55.7863 -0 -0 48.1727 -3.4505e-05 17.7082 -6.51341 -2.07435 6.61537e-06 -15.3498 
-18.484 82.608 -1.7981 1.50247 84.2959 23.698 0 -0 0 -3.13054 10.0645 18.1666 12.6848 -4.03449 -1.74403e-05 56.525 8.18749 17.8574 180 73.6311 180 -3.82139 13.7386 -0.460499 -11.8411 17.4928 -1.68206e-06 -43.9798 44.1606 27.8832 180 -81.7273 180 -0.998498 -1.73446 0.0150996 1.71458 -9.81404 -4.91369 4.86658 -11.5444 -21.5087 -0 -0 42.6451 8.1296e-06 -5.32161 -3.38958 0.315508 -1.73251e-06 -64.4406 -5.67424 7.26019 -55.5312 -0 -0 44.5934 -1.30269e-05 17.324 -5.19884 -1.61885 1.20012e-05 -16.8139 
-17.108 83.018 -1.8165 1.4543 84.399 23.7422 0 -0 0 -3.33598 10.5106 18.0251 12.3179 -4.082 1.05668e-05 56.5158 7.76951 17.9363 180 73.5521 180 -3.65607 13.5765 -0.435294 -12.0424 17.9066 -9.29063e-06 -43.4694 44.1895 28.0738 180 -80.8104 180 -1.34411 -2.01495 0.0236006 1.41699 -9.9767 -5.12139 4.5118 -12.015 -20.6458 -0 -0 41.9834 -2.60483e-08 -4.55719 -0.945392 0.0753001 4.49417e-07 -67.8989 -6.19736 7.42874 -55.2133 -0 -0 41.1286 3.23511e-06 16.8642 -3.93838 -1.19286 -5.50498e-06 -18.5706 
-15.718 83.383 -1.8352 1.20458 84.4647 23.559 0 -0 0 -3.54288 10.9343 17.9185 11.9793 -4.13546 1.28356e-05 56.5453 7.40572 18.0525 180 73.5863 180 -3.46442 13.4031 -0.407187 -12.2618 18.3152 7.01514e-05 -43.0877 44.1407 28.1462 -180 -79.9447 180 -1.71022 -2.29873 0.0343005 1.14659 -10.0796 -5.34658 4.15968 -12.4661 -19.8119 -0 -0 41.438 -7.88023e-08 -3.75752 1.466 -0.0963016 2.17713e-07 -70.7993 -6.67828 7.60978 -54.8518 -0 -0 37.8313 6.34617e-06 16.3552 -2.78844 -0.818011 -1.88698e-06 -20.5458 
-14.321 83.696 -1.8509 0.695482 84.4971 23.1036 0 -0 0 -3.75397 11.3444 17.8166 11.6625 -4.1783 -2.47515e-05 56.6188 7.07031 18.189 -180 73.7234 -180 -3.23425 13.2263 -0.375109 -12.4928 18.7 2.68809e-06 -42.8589 44.0451 28.0739 180 -79.1418 180 -2.0977 -2.57443 0.0471006 0.905697 -10.1222 -5.57031 3.82305 -12.8581 -19.0343 -0 -0 41.0361 -3.72658e-07 -2.97732 3.7934 -0.197201 -3.94332e-06 -72.9319 -7.10737 7.8077 -54.4822 -0 -0 34.7497 -6.22197e-06 15.8199 -1.77431 -0.502593 -1.1673e-06 -22.7899 
-12.916 83.954 -1.8661 -0.0300172 84.4919 22.4101 0 -0 0 -3.9712 11.7358 17.7303 11.3683 -4.22496 8.94744e-06 56.7323 6.79535 18.3538 180 73.9656 180 -2.96443 13.0357 -0.3388 -12.7068 19.0731 2.11314e-05 -42.8177 43.8773 27.8672 180 -78.4278 -180 -2.46543 -2.82249 0.0607976 0.693097 -10.097 -5.78775 3.49492 -13.1907 -18.3098 -0 -0 40.7946 -2.14466e-06 -2.26079 5.98571 -0.235901 5.56995e-06 -74.263 -7.48 8.01577 -54.1005 -0 -0 31.9253 -4.43625e-06 15.2795 -0.933107 -0.254907 1.98152e-07 -25.0801 
-11.507 84.151 -1.8799 -0.955847 84.4447 21.5065 0 -0 0 -4.19352 12.1108 17.6463 11.096 -4.26799 6.82496e-06 56.883 6.565 18.539 180 74.2978 180 -2.65282 12.8383 -0.298482 -12.8968 19.429 1.32359e-05 -42.9757 43.651 27.5211 -180 -77.8093 180 -2.79205 -3.03268 0.0739015 0.509094 -10.0074 -5.99247 3.18247 -13.4436 -17.6601 -0 -0 40.7439 2.30803e-06 -1.67349 7.98419 -0.232505 -2.7408e-06 -74.7211 -7.78893 8.23181 -53.7337 -0 -0 29.4028 9.71666e-07 14.7532 -0.262699 -0.0692006 2.14836e-07 -27.3308 
-10.098 84.284 -1.893 -2.05782 84.3615 20.4218 0 -0 0 -4.41992 12.4683 17.5573 10.8451 -4.30426 4.54048e-06 57.0719 6.37076 18.7376 180 74.6964 180 -2.30425 12.6374 -0.255188 -13.0639 19.7634 -4.71297e-05 -43.3316 43.3686 27.0386 180 -77.287 -180 -3.05157 -3.19823 0.0851994 0.353907 -9.85769 -6.18646 2.8881 -13.6104 -17.1006 -0 -0 40.906 3.86299e-07 -1.27659 9.73173 -0.215801 7.03707e-07 -74.3146 -8.02964 8.44882 -53.3987 -0 -0 27.2208 5.16839e-07 14.2576 0.254098 0.0646001 3.76777e-08 -29.4206 
-8.6898 84.351 -1.9059 -3.3001 84.2462 19.1881 0 -0 0 -4.64391 12.8035 17.4726 10.6147 -4.33271 -3.51059e-06 57.2899 6.20408 18.9449 -180 75.1462 -180 -1.92803 12.4376 -0.210109 -13.2086 20.0813 0.000131093 -43.8784 43.0221 26.4329 -180 -76.8614 180 -3.22251 -3.31877 0.0934015 0.226093 -9.65399 -6.37868 2.61352 -13.6905 -16.6385 -0 -0 41.3004 -4.31059e-07 -1.1226 11.1777 -0.217596 -4.52064e-07 -73.1051 -8.19898 8.66529 -53.1052 -0 -0 25.4266 -2.10217e-06 13.7971 0.644904 0.158396 -5.33676e-07 -31.243 
-7.2908 84.351 -1.9225 -4.51699 84.0983 17.9961 0 -0 0 -4.88297 13.1138 17.3672 10.4145 -4.34124 -2.81394e-06 57.5295 6.03515 19.1459 180 75.6127 180 -1.53332 12.2446 -0.164507 -13.3516 20.3702 -8.0147e-05 -44.5806 42.6359 25.7041 -180 -76.5002 180 -3.2986 -3.39731 0.0978996 0.129101 -9.40626 -6.57736 2.35046 -13.6897 -16.3111 -0 -0 41.9585 -1.11294e-06 -1.24856 12.2763 -0.265491 3.41196e-06 -71.1606 -8.29108 8.8457 -52.8743 -0 -0 24.0267 4.98966e-06 13.4119 0.974008 0.232194 -1.06559e-06 -32.79 
-5.8997 84.282 -1.9427 -5.71182 83.9319 16.8235 0 -0 0 -5.12121 13.3941 17.2717 10.2447 -4.33077 3.25101e-06 57.784 5.86364 19.3355 180 76.0776 180 -1.13479 12.063 -0.119903 -13.5029 20.6396 -3.60007e-05 -45.417 42.1875 24.8745 180 -76.2009 -180 -3.27499 -3.44545 0.0984984 0.0575056 -9.12166 -6.80313 2.09807 -13.6195 -16.1037 -0 -0 42.8784 -3.33992e-06 -1.66905 13.0068 -0.3757 4.50081e-06 -68.6433 -8.31067 8.99899 -52.7108 -0 -0 23.0716 -7.73042e-07 13.0858 1.27086 0.295391 -1.23301e-08 -34.0258 
-4.5194 84.144 -1.9692 -6.7938 83.7403 15.769 0 -0 0 -5.36476 13.6407 17.1909 10.1146 -4.29636 -9.76186e-07 58.0446 5.6761 19.5003 180 76.5128 180 -0.743686 11.8951 -0.0774962 -13.6796 20.8898 -5.84202e-05 -46.348 41.6755 23.9615 -180 -75.9342 180 -3.16245 -3.47156 0.0959006 0.00840318 -8.80986 -7.07152 1.84459 -13.4926 -16.0223 -0 -0 44.0615 5.9713e-06 -2.37101 13.3649 -0.548407 2.71341e-06 -65.7617 -8.26634 9.11246 -52.6281 -0 -0 22.5832 4.5793e-06 12.8209 1.57236 0.3578 2.0065e-06 -34.9413 
-3.1551 83.939 -2.0041 -7.66501 83.5442 14.934 0 -0 0 -5.6214 13.848 17.1202 10.0309 -4.22595 -3.38271e-06 58.3037 5.45077 19.6243 180 76.8974 180 -0.367603 11.7501 -0.0378018 -13.909 21.1109 8.49846e-05 -47.3309 41.1104 22.9732 180 -75.67 180 -2.97744 -3.49086 0.0907967 -0.0222022 -8.4769 -7.39511 1.58285 -13.3183 -16.0832 -0 -0 45.5088 1.58847e-06 -3.31897 13.3488 -0.767094 -5.43313e-06 -62.4789 -8.16438 9.1709 -52.6456 -0 -0 22.5667 4.11591e-06 12.6267 1.91908 0.429801 -3.61491e-06 -35.6228 
-1.809 83.668 -2.0461 -8.40195 83.3353 14.2451 0 -0 0 -5.8801 14.0145 17.0689 9.99411 -4.11075 -5.08728e-06 58.561 5.1743 19.6895 180 77.2163 180 -0.00959991 11.627 -0.00100001 -14.2152 21.2989 4.58179e-05 -48.3269 40.4936 21.9208 180 -75.3795 -180 -2.73946 -3.51383 0.0840033 -0.0469058 -8.12674 -7.78269 1.31544 -13.0967 -16.2784 -0 -0 47.1985 -1.27297e-06 -4.45717 12.9866 -1.00351 -1.10638e-06 -58.9185 -8.02377 9.19298 -52.7887 -0 -0 23.0551 -7.7949e-07 12.466 2.29869 0.507998 4.1065e-06 -36.0094 
-0.4768 83.334 -2.1002 -8.79411 83.125 13.89 0 -0 0 -6.1622 14.1448 17.0672 10.0225 -3.96211 -7.15565e-06 58.8079 4.86337 19.69 180 77.4774 180 0.3245 11.522 0.0326986 -14.5866 21.4583 4.25497e-05 -49.3153 39.788 20.8419 180 -75.0608 180 -2.47846 -3.53396 0.076498 -0.0693986 -7.76868 -8.24259 1.00399 -12.8577 -16.5811 -0 -0 49.1027 -2.72114e-05 -5.69253 12.3371 -1.22011 -8.54922e-06 -55.4695 -7.89467 9.19366 -53.0422 -0 -0 24.0352 5.30616e-06 12.3124 2.68825 0.586502 7.1135e-06 -36.0719 
0.8346 82.94 -2.1567 -9.17324 82.9115 13.5534 0 -0 0 -6.42538 14.2374 17.0975 10.0964 -3.75149 -1.56373e-06 59.0636 4.48208 19.6001 -180 77.6676 -180 0.64651 11.4404 0.0648014 -15.0713 21.5609 1.03744e-05 -50.2537 39.028 19.7319 180 -74.6846 -180 -2.20625 -3.56658 0.0687013 -0.114601 -7.39744 -8.76194 0.694085 -12.5678 -16.9983 -0 -0 51.1928 3.79924e-06 -6.96355 11.433 -1.38691 -1.32339e-05 -51.9133 -7.77988 9.22074 -53.4644 -0 -0 25.5446 -4.07181e-06 12.1162 3.03032 0.6502 -3.16972e-06 -35.6987 
